<?xml version="1.0" encoding="iso-8859-1"?>
<!-- Generator: Adobe Illustrator 19.0.0, SVG Export Plug-In . SVG Version: 6.00 Build 0)  -->
<svg version="1.1" id="Capa_1" xmlns="http://www.w3.org/2000/svg" xmlns:xlink="http://www.w3.org/1999/xlink" x="0px" y="0px"
   viewBox="0 0 511.266 511.266" style="enable-background:new 0 0 511.266 511.266;" xml:space="preserve">
<circle style="fill:#65B1EF;" cx="255.616" cy="255.633" r="255.616"/>
<g>
  <path style="fill:#E9EFF4;" d="M131.392,470.129c-0.048,0.096-0.112,0.16-0.16,0.256c0.384,0.096,0.752,0.224,1.136,0.304
    L131.392,470.129z"/>
  <path style="fill:#E9EFF4;" d="M115.312,109.857l-0.512-1.04c4.272-0.64,4.56-3.648,7.808-4.752c3.696-1.216,2.432,0.112,6.064,0
    c2.944-0.128,4.736,2.016,8.096,0.448c-0.816,1.44-2.144,2.432-3.472,3.408c-2.768,1.968-5.6,3.984-8.896,4.752
    C121.104,113.425,117.232,112.625,115.312,109.857z"/>
  <path style="fill:#E9EFF4;" d="M166.448,337.697c-0.064,2.256-1.392,4.224-2.544,6.128c-5.136,8.384-8.256,18.096-8.944,27.936
    c-0.688,9.424-0.272,21.04-8.48,25.68c-4.688,2.608-11.28,2.144-14.4,6.544c-0.976,1.328-1.44,3.008-1.904,4.576
    c-2.016,7.344-4.048,14.688-6.064,22.032c-2.608-0.224-5.264-0.512-7.856-0.8c3.072,0.976,5.2,5.136,3.36,7.984
    c-2.944-1.552-6.816,0.288-8.448,3.248c-1.552,2.944-1.328,6.528-0.464,9.776c2.672,9.6,10.88,17.344,20.544,19.648
    c-1.68,3.184-6.816,1.792-9.952-0.336c-22.384-15.136-39.28-38.192-46.992-64.096c-2.72-9.136-4.464-18.848-9.792-26.704
    c-4.448-6.64-11.168-11.504-15.616-18.144c-6.24-9.536-7.408-21.904-14.64-30.624c-4.048-4.976-10.304-11.088-6.72-16.416
    c1.44-2.192,4.512-4.272,3.296-6.592c-0.4-0.752-1.216-1.216-1.856-1.856c-2.432-2.608-0.752-6.704,0.464-10.064
    c2.016-5.84,2.016-12.08,1.152-18.32c-6.08-5.44-10.88-12.192-13.888-19.776c-1.792-4.624-4.176-10.4-9.136-10.464
    c-1.28-3.584-2.608-7.168-3.888-10.752c-0.464,1.28-1.728,2.08-3.12,2.256C4.4,179.985,28.016,126.833,64.768,85.649
    c0.816-0.352,1.616-0.816,2.432-1.28c8.72-5.088,15.664-12.72,24.096-18.272c1.728-1.152,3.696-2.256,5.84-2.032
    c2.08,0.176,4.048,2.304,3.296,4.272c-0.288,0.816-0.976,1.456-1.68,1.968c-9.872,8.4-20.688,15.744-32.192,21.824
    c-1.376,0.688-2.832,1.504-3.456,2.896c-1.168,2.368,0.8,5.312,3.296,6.176c2.48,0.864,5.264,0.352,7.808-0.224
    c-2.144,3.056-2.784,7.168-1.68,10.752c2.368,0.224,3.12-3.008,3.824-5.264c2.88-8.96,17.168-12.608,16.24-22.048
    c3.872,2.016,7.808-2.496,10.176-6.192c2.368-3.76,7.632-7.456,10.528-4.16c0.16,1.84,0.384,3.696,0.56,5.552
    c5.088-1.28,10.24-2.608,15.328-3.888c-2.896,2.032-3.872,6.368-2.208,9.488c1.68,3.12,5.84,4.688,9.136,3.408
    c-0.048,2.72-2.48,4.8-4.688,6.416c-5.6,4.224-11.616,8.56-18.144,10.64l1.504,3.12c-0.16,0.064-0.336,0.128-0.512,0.128
    c-4.16,0.4-8.56-2.592-13.008-2.016c-2.72,0.352-6.064,0.352-7.632,3.12c-0.224,0.352-1.2,5.2-0.512,4.8
    c2.432-1.392,4.848-2.784,7.232-4.16c0.736,1.968,0.912,4.16,0.512,6.304c2.944-0.288,6.016,0.336,8.624,1.904
    c-2.72,6.304-9.712,10.528-16.592,10c-0.064-2.08-0.176-4.16-0.24-6.24c-5.664-0.464-10.288,4.4-13.12,9.264
    c-2.88,4.912-5.072,10.528-9.824,13.648c-2.88,1.968-6.416,2.72-9.536,4.336c-3.056,1.68-5.888,4.864-5.248,8.272
    c0.288,1.616,1.328,3.12,1.28,4.8c-0.176,3.12-3.808,4.576-6.24,6.592c-4.16,3.472-5.2,9.84-9.648,12.896
    c-3.232,2.256-7.52,2.208-11.28,3.36c-3.76,1.152-7.52,4.912-6,8.56c-1.856,0.64-4.112-0.752-4.288-2.72
    c-6.64,13.072-11.024,27.296-12.816,41.872c3.296,2.304,6.64-2.96,7.28-6.944c0.688-3.984,4.16-9.2,7.392-6.832
    c-0.752,5.728-1.504,11.392-2.24,17.12c-0.176,1.104-0.288,2.256,0.24,3.232c0.64,1.216,2.016,1.728,3.072,2.592
    c2.944,2.544,2.544,7.056,2.72,10.928c0.176,4.736,1.744,9.36,4.224,13.408c-0.24-0.816-0.4-1.616-0.576-2.432
    c4.512,0.576,9.2-0.88,12.608-3.888c1.792-1.616,3.296-3.696,5.552-4.512c2.32-0.864,4.864-0.24,7.232,0.4
    c7.344,2.016,15.152,4.272,20.064,10.048c2.48,2.944,4.048,6.656,7.008,9.072c6.704,5.664,18.048,3.168,24.176,9.472
    c4.912,5.088,4,13.296,2.672,20.288c-3.36-1.84-7.856,2.784-5.888,6.08c1.792-1.968,3.872-4.048,6.48-4.048
    c2.656-0.064,4.976,3.584,3.008,5.264c4.624-5.904,15.952-3.472,17.744,3.872c6.48,0.464,13.008,0.912,19.488,1.44
    C146.944,327.585,166.848,328.145,166.448,337.697z"/>
  <path style="fill:#E9EFF4;" d="M127.04,70.193c-2.496,1.232-5.936-0.16-6.864-2.784c-0.944-2.624,0.832-5.872,3.552-6.496
    c1.712-0.4,4.096-0.208,4.624-1.888c0.16-0.512,0.064-1.072,0.064-1.6c-0.064-3.168,2.768-5.792,5.824-6.592
    c3.056-0.784,6.288-0.176,9.392,0.432c1.104,2.288,1.424,4.944,0.896,7.424c-2.128,0.096-4.256,0.176-6.384,0.272
    c0.192,3.536-0.16,7.984-3.44,9.296c-2.944,1.168-6.784-1.008-9.232,0.976"/>
  <path style="fill:#E9EFF4;" d="M160.176,34.881c5.808-2.784,10.72-7.168,16.448-10.112c9.856-5.056,21.36-5.504,32.432-5.856
    c25.2-0.784,50.4-1.568,75.6-2.352c-5.84,3.2-11.68,6.416-17.536,9.616c-4.768,2.624-10.192,5.312-15.424,3.824
    c-0.112,4.208,3.712,8.112,7.936,8.08c-10.352,6.4-24.72-0.144-35.648,5.232c-4.576,2.256-8.272,6.512-13.312,7.312
    c-2.912,0.464-5.936-0.32-8.832,0.32c-4.848,1.056-7.904,5.648-11.488,9.072c-4.128,3.952-10.192,6.656-15.584,4.768
    c-5.392-1.888-8.208-9.904-3.888-13.648c2.128-1.84,5.168-2.144,7.68-3.44c2.512-1.28,4.496-4.72,2.608-6.816
    c-0.816-0.912-2.16-1.264-2.912-2.24c-0.816-1.056-0.736-2.56-1.408-3.712c-2.56-4.496-9.68,1.552-14.528-0.256"/>
  <path style="fill:#E9EFF4;" d="M236.704,56.145c3.408-0.784,6.368-2.8,9.552-4.272s6.976-2.336,10.096-0.784
    c0.928,2.32-1.744,4.432-4.096,5.264c-4.512,1.584-9.408,2.016-14.128,1.232"/>
  <path style="fill:#E9EFF4;" d="M442.736,81.569c-0.928,0.112-1.904,0.064-2.896-0.176c-4.336-0.928-7.632-4.272-11.344-6.704
    c-8.56-5.664-20.24-6.4-29.488-1.776c2.192-3.184,3.296-7.12,3.056-10.992l-1.328,0.464c-15.152-8.784-32.912-17.904-49.44-12
    c-3.824,1.392-7.28,3.472-11.152,4.8c-4.112,1.44-8.672,2.032-12.192,4.576c-3.584,2.544-5.488,8.16-2.416,11.216
    c2.608,2.608,6.768,1.904,10.416,2.256c3.584,0.352,7.696,3.92,5.728,6.992c-15.84,7.408-31.728,14.88-47.568,22.352
    c7.28,2.368,12.096,10.624,10.528,18.144c-5.328,0.928-10.464-2.304-15.84-2.656c-7.808-0.4-15.264,6.48-15.424,14.288
    c-0.224,7.808,6.944,15.024,14.752,14.912c5.84-0.064,11.568-3.584,17.232-2.096c0.224-5.328,3.872-9.84,7.616-13.648
    c7.28-7.296,17.68-13.888,27.408-10.304c3.184,1.152,5.904,3.296,8.56,5.424c5.84,4.624,11.68,9.296,17.536,13.984
    c1.856-1.904,3.696-3.824,5.552-5.664c3.184,3.36,6.368,6.704,9.6,10.112c1.616-1.104,3.296-2.144,4.912-3.248
    c1.152,3.008,2.368,5.952,3.536,8.96c0.464-3.296,0.864-6.528,1.264-9.776c3.824,0.112,7.872,0.224,11.328-1.504
    c3.472-1.68,6.016-5.84,4.56-9.424c-0.752-1.904-2.544-3.408-2.896-5.44c-0.752-4.048,5.024-6.816,8.784-4.976
    c3.696,1.792,5.552,6.016,7.12,9.888c0.864-3.936,1.664-7.808,2.544-11.744c3.616,9.504,8.832,18.4,15.312,26.208
    c-11.856-2.256-24.352-0.96-35.44,3.6c3.536,4.976,9.6,7.92,15.68,7.68c2.72-0.064,5.728-0.688,7.808,1.04
    c1.568,1.328,1.968,3.472,2.256,5.44c0.928,5.552,1.856,11.04,2.72,16.528c-6.256-5.136-15.264-4.56-23.424-4.72
    c-8.16-0.224-17.696-2.48-20.704-10.048c-3.232,3.648-4.672,8.848-3.744,13.712c-8.448-2.016-18.16-5.248-20.592-13.584
    c-6.592,2.432-14.8-1.776-16.592-8.544c-0.64-2.368-0.816-5.264-2.896-6.528c-1.264-0.752-2.896-0.64-4.4-0.464
    c-12.544,1.456-25.04,2.848-37.52,4.304c-6.816,0.816-13.872,1.632-19.888,4.976c-6.016,3.296-10.8,9.776-10.112,16.608
    c-11.504,6.832-21.264,16.72-27.856,28.352c-2.08,3.584-3.872,7.696-3.056,11.744c0.576,3.12,2.656,5.776,3.296,8.848
    c1.104,5.264-1.904,10.352-3.168,15.552c-3.584,14.8,7.648,28.736,18.064,39.936c4.912,5.2,10.592,10.864,17.76,11.152
    c4.448,0.176,8.672-1.792,12.832-3.424c11.904-4.688,24.864-6.832,37.632-6.32c-2.896,2.256,0.112,7.168,3.712,7.92
    c3.584,0.752,7.456-0.416,10.928,0.8c7.92,2.832,6.832,14.448,3.248,22.032c1.792-0.352,3.648-0.704,5.488-1.04
    c-0.976,2.544-1.968,5.088-2.944,7.568c10.864,1.376,14.976,15.664,12.448,26.352c-2.48,10.704-8.832,20.528-9.008,31.52
    c-0.048,6.016,1.792,11.856,3.648,17.568c4.64,14.512,9.264,29.024,13.904,43.584c12.96,1.552,20.4-14.928,32.432-20.08
    c4.512-1.968,9.824-2.368,13.36-5.728c3.408-3.232,2.304-10.816-2.08-10.816c5.952-0.64,11.04-6.08,11.216-12.096
    c0.064-1.68-0.176-3.36,0.048-5.024c0.4-2.368,1.904-4.448,3.344-6.48c9.184-13.184,15.136-28.288,21.088-43.2
    c1.552-4,3.12-7.92,4.672-11.92c5.888-14.864,11.728-29.664,17.616-44.528c2.304-5.84,4.624-11.616,6.928-17.472
    c-3.184,5.264-11.504,4.576-16.256,0.64c-4.8-3.92-7.296-9.888-11.056-14.8c-3.184-4.224-7.472-7.968-8.976-13.12
    c-0.864-2.944-0.704-6.128-1.216-9.2c-1.168-6.656-5.552-12.192-8.56-18.208s-4.576-13.808-0.352-19.088
    c12.16,21.216,23.216,43.056,33.216,65.44c1.104-3.472,3.648-6.48,6.88-8.16c2.368-1.28,5.024-1.792,7.52-2.832
    c6.592-2.896,11.152-9.888,11.152-17.056c-0.064-7.168-4.624-14.16-11.28-16.992c-3.296-1.392-7.056-1.84-10.176-3.76
    c-3.12-1.84-5.376-6.064-3.408-9.136c1.84-2.896,6.304-2.832,9.36-1.216c3.072,1.68,5.328,4.512,8.208,6.416
    c2.08,1.392,4.512,2.304,6.768,3.584c12.208,6.992,15.216,22.896,17.776,36.768c1.392,7.456,2.96,14.864,4.816,22.144
    c0.064-1.568,0.048-3.184,0.048-4.736C511.2,188.273,485.2,127.169,442.736,81.569z M466.144,165.569
    c-1.68-0.112-3.232-1.216-4.576-2.256c-2.192-1.728-4.4-3.76-5.04-6.48c-0.752-3.232,0.8-6.944-0.928-9.824
    c-0.816-1.392-2.256-2.256-3.472-3.232c-3.184-2.544-5.504-6.192-6.368-10.112c-0.752-3.472,0.336-8.096,3.872-8.672
    c1.68-0.288,3.52,0.64,4.272,2.192l-2.368,1.28c3.984,0.464,5.84,6.48,2.784,9.072c-0.4,0.4-0.928,0.752-0.928,1.328
    c0,0.352,0.224,0.688,0.528,0.928c2.48,2.72,6.192,3.696,9.424,5.424c3.232,1.68,6.416,4.8,5.904,8.384
    c-1.04,0.4-2.016,0.752-3.056,1.152c-1.104,1.104-0.224,3.072,0.928,4.16s2.656,2.192,2.72,3.808
    C469.84,164.465,467.872,165.681,466.144,165.569z"/>
  <path style="fill:#E9EFF4;" d="M467.808,343.457l-4.176,2.96c1.456,5.12-1.456,11.12-6.4,13.12c-2.608,1.056-6.08,1.52-6.96,4.192
    c-0.736,2.272,1.024,4.576,1.264,6.944c0.384,3.936-3.296,6.88-5.952,9.808s-4.064,8.432-0.528,10.192
    c0.816,0.416,1.76,0.496,2.672,0.576c3.84,0.336,8.048,0.448,11.184-1.792c8.992-6.416,0.448-23.824,9.328-30.416
    c1.264-0.928,2.848-1.6,3.536-3.008C473.872,351.889,466.144,347.777,467.808,343.457z"/>
</g>
<g>
</g>
<g>
</g>
<g>
</g>
<g>
</g>
<g>
</g>
<g>
</g>
<g>
</g>
<g>
</g>
<g>
</g>
<g>
</g>
<g>
</g>
<g>
</g>
<g>
</g>
<g>
</g>
<g>
</g>
</svg>
