<?xml version="1.0" encoding="UTF-8" standalone="no"?> <svg width="48" height="48" viewBox="0 0 48 48" fill="none" xmlns="http://www.w3.org/2000/svg">
<path d="M0 24C0 10.7452 10.7452 0 24 0C37.2548 0 48 10.7452 48 24C48 37.2548 37.2548 48 24 48C10.7452 48 0 37.2548 0 24Z" fill="#2E2882"/>
<path fill-rule="evenodd" clip-rule="evenodd" d="M39.2 16.0168L33.1794 20.7799L24.4 15.4241L30.4928 10.4L39.2 16.0168ZM18.3072 10.4001L24.3998 15.4241L15.6207 20.7799L15.6206 20.7799L15.6206 20.7799L9.60003 16.0168L18.3072 10.4001ZM15.6206 20.7799L15.6207 20.7799L15.6207 20.7799L24.3999 26.1359L33.1795 20.7801L39.1999 25.5435L30.4927 31.1603L24.4 26.136L18.3072 31.1603L9.60001 25.5436L15.6206 20.7799ZM30.5285 32.2264L24.4179 27.2168L18.3073 32.2264L15.6924 30.5397V32.4305L24.4179 37.6L33.1434 32.4305V30.5397L30.5285 32.2264Z" fill="#FEB0A5"/>
</svg>
